# xmcd
# 
# Track frame offsets:
#     150
#     13381
#     30122
#     48037
#     71073
#     88601
#     106534
#     108195
#     126386
#     144340
#     163190
# 
# Disc length: 2426
# 
# Revision: 3
# Processed by: cddbd v1.5.2PL0 Copyright (c) Steve Scherf et al.
# Submitted via: fre:ac v1.0.17
# 
DISCID=8509780b
DTITLE=Alexander O'Neal - Saga Of A Married Man
DYEAR=2002
DGENRE=R&B
TTITLE0=He Said She Said
TTITLE1=You're Gonna Miss Me
TTITLE2=I'm There
TTITLE3=My Baby's Gone
TTITLE4=It Don't Matter
TTITLE5=It's OK
TTITLE6=What You See Is What You Get
TTITLE7=Married Man
TTITLE8=What Is A Man?
TTITLE9=Last Night
TTITLE10=Happy Home
EXTD=
EXTT0=
EXTT1=
EXTT2=
EXTT3=
EXTT4=
EXTT5=
EXTT6=
EXTT7=
EXTT8=
EXTT9=
EXTT10=
PLAYORDER=
